#define icon_close_width 10
#define icon_close_height 10
static unsigned char icon_close_bits[] = {
   0x00, 0x00, 0x10, 0x00, 0x10, 0x00, 0x10, 0x00, 0x10, 0x00, 0x10, 0x00,
   0x10, 0x00, 0x00, 0x00, 0x10, 0x00, 0x00, 0x00 };
