#define icon_maximize_width 10
#define icon_maximize_height 10
static unsigned char icon_maximize_bits[] = {
   0x90, 0x00, 0x90, 0x00, 0x90, 0x00, 0xfe, 0x03, 0x48, 0x00, 0x48, 0x00,
   0xff, 0x01, 0x64, 0x00, 0x24, 0x00, 0x24, 0x00 };
